<svg clip-rule="evenodd" fill-rule="evenodd" stroke-linejoin="round" stroke-miterlimit="2" viewBox="0 0 1080 1080" xmlns="http://www.w3.org/2000/svg"><path d="M1079.999 269.999v539.997c0 149.017-120.983 270-270 270H270C120.983 1079.995 0 959.012 0 809.995V270c0-149.017 120.982-270 270-270h540c149.016 0 269.999 120.983 269.999 270z" fill="#01216f"/><g fill="#fff" fill-rule="nonzero"><path d="M913.478 292.788l-310.991 6.645-3.599 43.69 129.062-2.684-28.745 362.45 51.58-.728 29.944-362.815 128.973-2.64zM326.854 639.455c-10.402.143-19.626-1.999-27.672-6.044-8.047-4.14-14.866-10.328-20.558-18.18-5.642-7.9-10.156-17.561-13.493-28.746s-5.495-23.89-6.525-37.883c-.981-13.991-.981-28.65.196-43.403s3.386-29.507 6.771-43.69c3.385-14.134 7.9-27.65 13.64-39.834 5.642-12.23 12.511-23.13 20.607-32.076 3.09-1.523 6.28-3.046 9.616-4.474 3.337-1.38 6.82-2.618 10.45-3.712a90.828 90.828 0 0111.678-2.665c4.122-.619 8.537-1 13.247-1.095 11.236-.238 21.049 1.713 29.537 5.711 8.439 3.95 15.602 9.9 21.49 17.752 5.839 7.805 10.402 17.418 13.787 28.793 3.434 11.327 5.593 24.32 6.624 38.835.883 12.564.736 26.318-.393 40.405-1.177 14.135-3.287 28.603-6.427 42.642-3.14 13.992-7.213 27.556-12.217 39.834-5.005 12.231-10.941 23.225-17.761 32.125-3.14 1.713-6.477 3.57-10.108 5.378-3.68 1.808-7.604 3.474-11.922 4.997s-8.979 2.76-14.032 3.712c-5.103.952-10.55 1.523-16.535 1.618m31.843-346.61c-43.422.856-79.484 11.089-109.02 27.65-29.44 16.467-52.5 39.311-69.819 65.344-17.27 25.985-28.948 55.254-35.767 84.713-6.771 29.412-8.783 59.109-6.771 85.998 1.717 22.654 6.378 44.07 14.081 63.535 7.654 19.465 18.35 36.931 32.039 51.732 13.689 14.754 30.42 26.842 50.192 35.551 19.773 8.757 42.539 14.04 68.445 15.23 4.023 11.327 8.635 22.273 13.836 32.457 5.2 10.232 10.99 19.75 17.516 28.413s13.737 16.514 21.833 23.32c7.997 6.805 16.829 12.611 26.642 17.18l105.34-57.062s-4.906-2.713-12.61-6.996-18.153-9.995-29.241-16.134c-11.089-6.044-22.766-12.469-32.873-17.942-10.157-5.473-18.792-10.042-23.698-12.47 29.242-8.851 53.627-22.748 73.743-40.024 20.116-17.323 35.915-38.073 47.837-60.68 11.874-22.605 19.92-47.02 24.63-71.672 4.662-24.748 5.937-49.734 4.27-73.291-1.67-24.367-6.625-47.64-14.916-68.818-8.243-21.13-19.822-40.167-34.836-56.063-14.964-15.943-33.314-28.698-55.148-37.407-21.784-8.662-47.003-13.183-75.705-12.564"/></g></svg>