<svg height="128mm" viewBox="0 0 128 128" width="128mm" xmlns="http://www.w3.org/2000/svg"><path d="m58.152695 85.37341h15.014451v41.575455h-15.014451z" fill="#4d4d4d" stroke="#fff" stroke-width="5"/><rect fill="#800080" height="86.869324" ry="12.768194" stroke="#fff" stroke-width="10" width="62.202721" x="34.558567" y="8.97826"/><g transform="matrix(1.8119873 0 0 1.8119873 43.673407 31.44754)"><path d="m4 16c0 .88.39 1.67 1 2.22v1.78c0 .55.45 1 1 1h1c.55 0 1-.45 1-1v-1h8v1c0 .55.45 1 1 1h1c.55 0 1-.45 1-1v-1.78c.61-.55 1-1.34 1-2.22v-10c0-3.5-3.58-4-8-4s-8 .5-8 4z" fill="#f9f9f9" stroke="#fff" stroke-width="3"/><path d="m4 16c0 .88.39 1.67 1 2.22v1.78c0 .55.45 1 1 1h1c.55 0 1-.45 1-1v-1h8v1c0 .55.45 1 1 1h1c.55 0 1-.45 1-1v-1.78c.61-.55 1-1.34 1-2.22v-10c0-3.5-3.58-4-8-4s-8 .5-8 4zm3.5 1c-.83 0-1.5-.67-1.5-1.5s.67-1.5 1.5-1.5 1.5.67 1.5 1.5-.67 1.5-1.5 1.5zm9 0c-.83 0-1.5-.67-1.5-1.5s.67-1.5 1.5-1.5 1.5.67 1.5 1.5-.67 1.5-1.5 1.5zm1.5-6h-12v-5h12z" fill="#800080"/><g fill="#fff"><path d="m9.6092868 12.157332h1.3636362v1.378299h-1.3636362z"/><path d="m11.442131 12.157332h1.363637v1.378299h-1.363637z"/><path d="m13.24565 12.157332h1.363637v1.378299h-1.363637z"/><circle cx="11.156642" cy="14.61291" r=".740904"/><circle cx="13.092126" cy="14.61291" r=".740904"/></g></g></svg>
