<svg height="24" viewBox="0 0 24 24" width="24" xmlns="http://www.w3.org/2000/svg"><path d="m12.305085 2.5042373c-4 0-8 .5-8 4v9.5000007a3.5 3.5 0 0 0 3.5 3.5l-1.5 1.5v.5h2.23l2-2h3.77l2 2h2v-.5l-1.5-1.5a3.5 3.5 0 0 0 3.5-3.5v-9.5000007c0-3.5-3.58-4-8-4m-4.5 15.0000007a1.5 1.5 0 0 1 -1.5-1.5 1.5 1.5 0 0 1 1.5-1.5 1.5 1.5 0 0 1 1.5 1.5 1.5 1.5 0 0 1 -1.5 1.5m3.5-7h-5v-4.0000007h5zm2 0v-4.0000007h5v4.0000007zm3.5 7a1.5 1.5 0 0 1 -1.5-1.5 1.5 1.5 0 0 1 1.5-1.5 1.5 1.5 0 0 1 1.5 1.5 1.5 1.5 0 0 1 -1.5 1.5z"/><path d="m12.305085 2.5042373c-4 0-8 .5-8 4v9.5000007c0 1.932997 1.567003 3.5 3.5 3.5l-1.5 1.5v.5h2.23l2-2h3.77l2 2h2v-.5l-1.5-1.5c1.932997 0 3.5-1.567003 3.5-3.5v-9.5000007c0-3.5-3.58-4-8-4" fill="#f9f9f9" stroke="#fff"/><path d="m12.305085 2.5042374c-4 0-8 .5-8 4v9.5000006a3.5 3.5 0 0 0 3.5 3.5l-1.5 1.5v.5h2.23l2-2h3.77l2 2h2v-.5l-1.5-1.5a3.5 3.5 0 0 0 3.5-3.5v-9.5000006c0-3.5-3.58-4-8-4m-4.5 15.0000006a1.5 1.5 0 0 1 -1.5-1.5 1.5 1.5 0 0 1 1.5-1.5 1.5 1.5 0 0 1 1.5 1.5 1.5 1.5 0 0 1 -1.5 1.5m3.5-7h-5v-4.0000006h5zm2 0v-4.0000006h5v4.0000006zm3.5 7a1.5 1.5 0 0 1 -1.5-1.5 1.5 1.5 0 0 1 1.5-1.5 1.5 1.5 0 0 1 1.5 1.5 1.5 1.5 0 0 1 -1.5 1.5z" fill="#800080"/><g fill="#fff" transform="translate(.440678 .5)"><path d="m9.6092868 12.157332h1.3636362v1.378299h-1.3636362z"/><path d="m11.442131 12.157332h1.363637v1.378299h-1.363637z"/><path d="m13.24565 12.157332h1.363637v1.378299h-1.363637z"/><circle cx="11.156642" cy="14.61291" r=".740904"/><circle cx="13.092126" cy="14.61291" r=".740904"/></g></svg>