<svg height="24" viewBox="0 0 24 24" width="24" xmlns="http://www.w3.org/2000/svg"><path d="m4 16c0 .88.39 1.67 1 2.22v1.78c0 .55.45 1 1 1h1c.55 0 1-.45 1-1v-1h8v1c0 .55.45 1 1 1h1c.55 0 1-.45 1-1v-1.78c.61-.55 1-1.34 1-2.22v-10c0-3.5-3.58-4-8-4s-8 .5-8 4z" fill="#f9f9f9" stroke="#fff" stroke-width="3"/><path d="m4 16c0 .88.39 1.67 1 2.22v1.78c0 .55.45 1 1 1h1c.55 0 1-.45 1-1v-1h8v1c0 .55.45 1 1 1h1c.55 0 1-.45 1-1v-1.78c.61-.55 1-1.34 1-2.22v-10c0-3.5-3.58-4-8-4s-8 .5-8 4zm3.5 1c-.83 0-1.5-.67-1.5-1.5s.67-1.5 1.5-1.5 1.5.67 1.5 1.5-.67 1.5-1.5 1.5zm9 0c-.83 0-1.5-.67-1.5-1.5s.67-1.5 1.5-1.5 1.5.67 1.5 1.5-.67 1.5-1.5 1.5zm1.5-6h-12v-5h12z" fill="#800080"/><g fill="#fff"><path d="m9.60928676825 12.15733210457h1.3636363797v1.37829912896h-1.3636363797z"/><path d="m11.44213135711 12.15733210457h1.3636363797v1.37829912896h-1.3636363797z"/><path d="m13.24565021469 12.15733210457h1.3636363797v1.37829912896h-1.3636363797z"/><circle cx="11.15664207073" cy="14.61291045422" r=".74090386028"/><circle cx="13.09212574926" cy="14.61291045422" r=".74090386028"/></g></svg>
