<svg height="24" viewBox="0 0 24 24" width="24" xmlns="http://www.w3.org/2000/svg"><path d="m4 16c0 .88.39 1.67 1 2.22v1.78c0 .55.45 1 1 1h1c.55 0 1-.45 1-1v-1h8v1c0 .55.45 1 1 1h1c.55 0 1-.45 1-1v-1.78c.61-.55 1-1.34 1-2.22v-10c0-3.5-3.58-4-8-4s-8 .5-8 4z" fill="#f9f9f9" stroke="#fff" stroke-width="3"/><path d="m4 16c0 .88.39 1.67 1 2.22v1.78c0 .55.45 1 1 1h1c.55 0 1-.45 1-1v-1h8v1c0 .55.45 1 1 1h1c.55 0 1-.45 1-1v-1.78c.61-.55 1-1.34 1-2.22v-10c0-3.5-3.58-4-8-4s-8 .5-8 4zm3.5 1c-.83 0-1.5-.67-1.5-1.5s.67-1.5 1.5-1.5 1.5.67 1.5 1.5-.67 1.5-1.5 1.5zm9 0c-.83 0-1.5-.67-1.5-1.5s.67-1.5 1.5-1.5 1.5.67 1.5 1.5-.67 1.5-1.5 1.5zm1.5-6h-12v-5h12z" fill="#800080"/><g fill="#fff"><path d="m9.60928677 12.1573321h1.36363638v1.37829913h-1.36363638z"/><path d="m11.44213136 12.1573321h1.36363638v1.37829913h-1.36363638z"/><path d="m13.24565021 12.1573321h1.36363638v1.37829913h-1.36363638z"/><circle cx="11.156642" cy="14.61291" r=".740904"/><circle cx="13.092126" cy="14.61291" r=".740904"/></g></svg>