<svg height="24" viewBox="0 0 24 24" width="24" xmlns="http://www.w3.org/2000/svg"><path d="m12.305085 2.504237c-4 0-8 .5-8 4v9.500001c0 1.932997 1.567003 3.5 3.5 3.5l-1.5 1.5v.5h2.23l2-2h3.77l2 2h2v-.5l-1.5-1.5c1.932997 0 3.5-1.567003 3.5-3.5v-9.500001c0-3.5-3.58-4-8-4" fill="#f9f9f9" stroke="#fff"/><path d="m12.305085 2.504237c-4 0-8 .5-8 4v9.500001a3.5 3.5 0 0 0 3.5 3.5l-1.5 1.5v.5h2.23l2-2h3.77l2 2h2v-.5l-1.5-1.5a3.5 3.5 0 0 0 3.5-3.5v-9.500001c0-3.5-3.58-4-8-4m-4.5 15.000001a1.5 1.5 0 0 1 -1.5-1.5 1.5 1.5 0 0 1 1.5-1.5 1.5 1.5 0 0 1 1.5 1.5 1.5 1.5 0 0 1 -1.5 1.5m3.5-7h-5v-4.000001h5zm2 0v-4.000001h5v4.000001zm3.5 7a1.5 1.5 0 0 1 -1.5-1.5 1.5 1.5 0 0 1 1.5-1.5 1.5 1.5 0 0 1 1.5 1.5 1.5 1.5 0 0 1 -1.5 1.5z" fill="#f00"/><path d="m10.837676 16.49563c.03367.0019.498713.0027.935831.0017l.79476-.0018-.0052-.146388-.0052-.146387-.992454-.0037-.992454-.0037-.699547-.727115 2.483623-2.481763 2.516377 2.47997-2.483904 2.599619c-.01006-.0062-.01304.000896-.007.01669zm.220421-.398773c.01188-.01431.01981-.06421.01763-.110899-.0022-.04669-.0029-.162735-.0017-.257887l.0023-.173004h.09548.09548l.146959.252852c.08083.139068.158873.266825.173434.283903.02125.02492.05535.03105.172652.03105.171685 0 .189022-.01688.120713-.117542-.02479-.03653-.05229-.08292-.0611-.103085-.0088-.02016-.04798-.08737-.08704-.149342-.03906-.06198-.07101-.116442-.07101-.121039 0-.0046-.01198-.02034-.02662-.03497-.03178-.03179-.03457-.05957-.006-.05957.03311 0 .156786-.05868.156786-.07439 0-.0079.01-.01442.02218-.01453.04068-.000352.0913-.140803.101251-.280918l.0096-.135862.182357-.0051.182357-.0051-.000975.528509c-.000535.29068-.000752.53849-.000482.550689.000347.01573.0392.02218.133572.02218.09429 0 .133268-.0065.133726-.02218.000357-.0122.000621-.257731.000589-.545627l-.000055-.523447.198694-.0089.198695-.0089.0059-.128117.0059-.128116-.520107-.005c-.286059-.0027-.530089-.0021-.542288.0014-.01419.0041-.02258.04239-.0233.106463-.000788.07006-.0055.08947-.01571.06464-.01467-.03571-.100975-.120335-.133992-.13139-.0098-.0033-.03771-.01363-.0621-.02303-.0244-.0094-.232002-.0166-.461343-.016l-.416983.0011-.0049.268017-.0049.268017-.07495-.0059-.07494-.0059-.0052.137516-.0052.137515h.08059.0806v.272075c0 .14964.0053.277397.01183.283903.02441.02441.249293.01266.271577-.01419zm.01256-.821257c-.0043-.0073-.0067-.06521-.0055-.128644l.0023-.115336.217192-.005c.243187-.0056.314658.01482.334926.09557.01186.04726-.03975.140084-.0779.140084-.01033 0-.02477.006-.03209.01331-.0073.0073-.107324.01331-.222231.01331-.114908 0-.212421-.006-.216696-.01331zm2.107817.749156c.02468-.05396.04488-.11385.04488-.133079 0-.03321.01315-.03496.263014-.03496h.263015l.03941.08428c.08828.188786.06737.172431.227785.178134.169664.006.18181-.0081.118428-.13821-.03492-.07166-.07941-.171678-.08683-.195184-.0111-.0352-.06136-.151924-.131772-.306084-.01895-.04148-.04025-.09929-.04735-.128467-.0071-.02918-.02393-.06408-.0374-.07755s-.02906-.04731-.03463-.07519c-.0056-.02788-.02115-.05984-.03462-.07101-.01346-.01117-.02448-.03423-.02448-.05124s-.02726-.08977-.06057-.161697c-.03331-.07192-.0568-.136876-.05218-.144339.0098-.01586.0215-.01517-.326406-.01926l-.270593-.0032-.000002.137516-.000002.137516h.13308c.07319 0 .13308.0041.13308.0091s-.0075.02298-.01664.03992c-.03699.06847-.105689.230089-.117052.275364-.0067.02652-.01796.04822-.02511.04822-.0072 0-.02301.03336-.03522.07414-.01222.04077-.03743.102538-.05604.137253-.01861.03472-.03383.06875-.03383.07564 0 .0069-.03258.08175-.07241.166359-.03983.08461-.0768.180899-.08217.213976l-.0098.06014h.143753.143753zm.193144-.473852c.01362-.03187.03487-.08189.04723-.111173.01235-.02928.03808-.08873.05716-.132108l.03469-.07888.06926.175376c.03809.09646.06926.180418.06926.186582 0 .0062-.06803.01277-.151175.01467l-.151176.0035z" fill="#fff" stroke-width=".017744"/></svg>