<svg height="24" viewBox="0 0 24 24" width="24" xmlns="http://www.w3.org/2000/svg"><path d="m4 16c0 .88.39 1.67 1 2.22v1.78c0 .55.45 1 1 1h1c.55 0 1-.45 1-1v-1h8v1c0 .55.45 1 1 1h1c.55 0 1-.45 1-1v-1.78c.61-.55 1-1.34 1-2.22v-10c0-3.5-3.58-4-8-4s-8 .5-8 4z" fill="#f9f9f9" stroke="#fff" stroke-width="3"/><path d="m4 16c0 .88.39 1.67 1 2.22v1.78c0 .55.45 1 1 1h1c.55 0 1-.45 1-1v-1h8v1c0 .55.45 1 1 1h1c.55 0 1-.45 1-1v-1.78c.61-.55 1-1.34 1-2.22v-10c0-3.5-3.58-4-8-4s-8 .5-8 4zm3.5 1c-.83 0-1.5-.67-1.5-1.5s.67-1.5 1.5-1.5 1.5.67 1.5 1.5-.67 1.5-1.5 1.5zm9 0c-.83 0-1.5-.67-1.5-1.5s.67-1.5 1.5-1.5 1.5.67 1.5 1.5-.67 1.5-1.5 1.5zm1.5-6h-12v-5h12z" fill="#800080"/><path d="m4 11.595703v4.404297c0 .88.39 1.670703 1 2.220703v1.779297c0 .55.45 1 1 1h1c.55 0 1-.45 1-1v-1h8v1c0 .55.45 1 1 1h1c.55 0 1-.45 1-1v-1.779297c.61-.55 1-1.340703 1-2.220703v-4.404297zm3.5 2.404297c.83 0 1.5.67 1.5 1.5s-.67 1.5-1.5 1.5-1.5-.67-1.5-1.5.67-1.5 1.5-1.5zm9 0c.83 0 1.5.67 1.5 1.5s-.67 1.5-1.5 1.5-1.5-.67-1.5-1.5.67-1.5 1.5-1.5z" fill="#f00"/><path d="m27.584577 178.82207c.669465.0379 9.915192.0528 18.605781.0331l15.801071-.0358-.102461-2.91042-.10246-2.91041-19.731538-.0742-19.73154-.0742-13.9080767-14.45619 49.3783167-49.34134 50.02951 49.30568-49.383913 51.68451c-.200095-.12367-.259259.0178-.138754.33189zm4.382322-7.92822c.236105-.28449.393807-1.27667.350449-2.20486-.04336-.92818-.05835-3.23542-.03331-5.12719l.04552-3.43958h1.898191 1.898192l2.921769 5.02708c1.606973 2.7649 3.158641 5.3049 3.448152 5.64445.422398.4954 1.100483.61736 3.432573.61736 3.413372 0 3.758071-.33565 2.399972-2.33692-.492915-.72635-1.039594-1.64862-1.214843-2.0495-.175253-.40087-.953971-1.73699-1.730488-2.96914-.77652-1.23216-1.411852-2.31506-1.411852-2.40645 0-.0914-.238125-.40429-.529166-.69533-.631931-.63194-.687222-1.18433-.118541-1.18433.658319 0 3.117152-1.16665 3.117152-1.479 0-.15669.198437-.28671.440972-.28893.808895-.007 1.8152-2.79939 2.013034-5.5851l.191827-2.70114 3.625543-.10064 3.625546-.10064-.01937 10.50759c-.01065 5.77917-.01496 10.70602-.0096 10.94856.0069.3127.779356.44097 2.655619.44097 1.874622 0 2.649583-.12854 2.658692-.44097.0071-.24254.01235-5.1241.01171-10.84792l-.0011-10.40695 3.950359-.17638 3.950364-.17639.116681-2.54715.116681-2.54716-10.340544-.0987c-5.6873-.0543-10.538982-.042-10.781517.0273-.28218.0806-.449026.84279-.463335 2.11667-.01566 1.39293-.109421 1.77886-.312282 1.28517-.291733-.70995-2.007531-2.39244-2.663966-2.61223-.194028-.065-.749653-.27102-1.234722-.45789-.48507-.18687-4.61257-.32998-9.172222-.31803l-8.290278.0217-.09754 5.3286-.09754 5.32861-1.490082-.11763-1.489958-.11762-.103034 2.73403-.103034 2.73403h1.60234 1.602339v5.40926c0 2.97509.105833 5.51509.235185 5.64444.48532.48532 4.956342.25175 5.399372-.28207zm.249778-16.32788c-.08499-.14552-.134046-1.29646-.109014-2.55764l.04551-2.29306 4.318102-.099c4.834943-.11088 6.255904.29458 6.65885 1.90004.235853.93971-.790385 2.7851-1.548822 2.7851-.205426 0-.492562.11906-.638083.26458s-2.133758.26458-4.418301.26458-4.223254-.11906-4.308244-.26458zm41.906713 14.8944c.490756-1.0729.892284-2.26352.892284-2.64583 0-.66035.261401-.6951 5.229133-.6951h5.229137l.783621 1.6757c1.755225 3.75336 1.339445 3.42821 4.528732 3.54158 3.373191.1199 3.614667-.16191 2.354534-2.74783-.694238-1.42465-1.578864-3.41323-1.726286-3.88056-.220754-.69981-1.219831-3.02049-2.619841-6.08542-.376671-.82462-.800322-1.97398-.941447-2.55414-.141122-.58016-.475731-1.27399-.743578-1.54183-.267843-.26784-.577698-.94054-.688566-1.49489-.110871-.55434-.420574-1.18965-.68823-1.41178-.26766-.22214-.486654-.68059-.486654-1.01878s-.541912-1.78485-1.204253-3.2148c-.662336-1.42994-1.129216-2.7213-1.037512-2.86968.194839-.31526.427535-.30153-6.489449-.3829l-5.37983-.0633-.000031 2.73403-.000036 2.73403h2.645834c1.455208 0 2.645833.0815 2.645833.18117 0 .0996-.148907.45683-.330909.79375-.735386 1.36134-2.101254 4.57453-2.327173 5.47467-.132344.52731-.357039.95874-.499321.95874-.142283 0-.457412.66326-.700292 1.47392-.242877.81066-.744256 2.03862-1.114175 2.7288-.369916.69019-.672574 1.36691-.672574 1.50383s-.647831 1.62529-1.439626 3.30747c-.791796 1.68219-1.526943 3.59657-1.633658 4.25419l-.194031 1.19568h2.85804 2.858039zm3.84001-9.42093c.27075-.63357.693258-1.62819.938908-2.21028.245646-.58208.757033-1.76402 1.136413-2.62653l.68978-1.5682 1.37692 3.48675c.757304 1.91771 1.376919 3.58701 1.376919 3.70955s-1.352521.25382-3.005606.29172l-3.005607.0689z" fill="#fff" stroke-width=".352778" transform="matrix(.05029785 0 0 .05029785 9.009553 7.001264)"/></svg>