<svg height="32" viewBox="0 0 32 32" width="32" xmlns="http://www.w3.org/2000/svg" xmlns:xlink="http://www.w3.org/1999/xlink"><linearGradient id="a" gradientUnits="userSpaceOnUse" x1="94.47298" x2="94.47298" y1="175.992366" y2="289.294316"><stop offset="0" stop-color="#393536"/><stop offset="1" stop-color="#393536" stop-opacity="0"/></linearGradient><g fill="url(#a)"><g opacity=".6" transform="matrix(.09697275 0 0 .16291879 .846353 -15.13148)"><path d="m83.703733 289.29431h4.45946l-8.01052-17.18303-4.51591-.22864v10.90898l6.09917.82766z"/><path d="m75.636763 175.99238v2.26695l6.09917.82762 6.70455 19.33645-8.28781-17.77788-4.51591-.22895v10.9093l6.09917.82761 6.70455 19.33646-8.28781-17.77788-4.51591-.22896v10.9093l6.09917.82762 6.70455 19.33646-8.28781-17.77789-4.51591-.2286v10.90895l6.09917.82762 6.70455 19.33645-8.28781-17.77788-4.51591-.2286v10.90895l6.09917.82761 6.70455 19.33646-8.28781-17.77788-4.51591-.2286v10.90894l6.09917.82762 6.70455 19.33646-8.28781-17.77789-4.51591-.2286v10.90895l6.09917.82762 6.70455 19.33645-8.28781-17.77788-4.51591-.2286v10.90891l6.09917.82765 6.49817 18.74161h3.75849v-113.30193z"/><path d="m80.152673 285.17781-4.51591-.2286v4.3451h6.43502z"/><path d="m118.49926 289.29431h-4.45946l8.01052-17.18303 4.51591-.22864v10.90898l-6.09918.82766z"/><path d="m126.56623 175.99238v2.26695l-6.09918.82762-6.70454 19.33645 8.28781-17.77788 4.51591-.22895v10.9093l-6.09918.82761-6.70454 19.33646 8.28781-17.77788 4.51591-.22896v10.9093l-6.09918.82762-6.70454 19.33646 8.28781-17.77789 4.51591-.2286v10.90895l-6.09918.82762-6.70454 19.33645 8.28781-17.77788 4.51591-.2286v10.90895l-6.09918.82761-6.70454 19.33646 8.28781-17.77788 4.51591-.2286v10.90894l-6.09918.82762-6.70454 19.33646 8.28781-17.77789 4.51591-.2286v10.90895l-6.09918.82762-6.70454 19.33645 8.28781-17.77788 4.51591-.2286v10.90891l-6.09918.82765-6.49816 18.74161h-3.7585v-113.30193z"/><path d="m122.05032 285.17781 4.51591-.2286v4.3451h-6.43502z"/><path d="m107.73001 289.29431h-13.257027v-113.30193h13.257027z"/></g><g opacity=".6" transform="matrix(.09697275 0 0 .16291879 11.884556 -15.13148)"><path d="m83.703733 289.29431h4.45946l-8.01052-17.18303-4.51591-.22864v10.90898l6.09917.82766z"/><path d="m75.636763 175.99238v2.26695l6.09917.82762 6.70455 19.33645-8.28781-17.77788-4.51591-.22895v10.9093l6.09917.82761 6.70455 19.33646-8.28781-17.77788-4.51591-.22896v10.9093l6.09917.82762 6.70455 19.33646-8.28781-17.77789-4.51591-.2286v10.90895l6.09917.82762 6.70455 19.33645-8.28781-17.77788-4.51591-.2286v10.90895l6.09917.82761 6.70455 19.33646-8.28781-17.77788-4.51591-.2286v10.90894l6.09917.82762 6.70455 19.33646-8.28781-17.77789-4.51591-.2286v10.90895l6.09917.82762 6.70455 19.33645-8.28781-17.77788-4.51591-.2286v10.90891l6.09917.82765 6.49817 18.74161h3.75849v-113.30193z"/><path d="m80.152673 285.17781-4.51591-.2286v4.3451h6.43502z"/><path d="m118.49926 289.29431h-4.45946l8.01052-17.18303 4.51591-.22864v10.90898l-6.09918.82766z"/><path d="m126.56623 175.99238v2.26695l-6.09918.82762-6.70454 19.33645 8.28781-17.77788 4.51591-.22895v10.9093l-6.09918.82761-6.70454 19.33646 8.28781-17.77788 4.51591-.22896v10.9093l-6.09918.82762-6.70454 19.33646 8.28781-17.77789 4.51591-.2286v10.90895l-6.09918.82762-6.70454 19.33645 8.28781-17.77788 4.51591-.2286v10.90895l-6.09918.82761-6.70454 19.33646 8.28781-17.77788 4.51591-.2286v10.90894l-6.09918.82762-6.70454 19.33646 8.28781-17.77789 4.51591-.2286v10.90895l-6.09918.82762-6.70454 19.33645 8.28781-17.77788 4.51591-.2286v10.90891l-6.09918.82765-6.49816 18.74161h-3.7585v-113.30193z"/><path d="m122.05032 285.17781 4.51591-.2286v4.3451h-6.43502z"/><path d="m107.73001 289.29431h-13.257027v-113.30193h13.257027z"/></g></g></svg>
