<svg height="101.02794mm" viewBox="0 0 101.02794 101.02794" width="101.02794mm" xmlns="http://www.w3.org/2000/svg"><g transform="translate(-109.52975 -1.775602)"><path d="m571.55469 6.7109375h-157.58399l381.83789 381.8378925v-157.58203z" fill="#800080" transform="scale(.26458333)"/><g fill="#fff"><path d="m203.28701 68.643953c-2.24356-2.243565-5.88231-2.243812-8.12663.000503-1.7953 1.795301-2.15401 4.482392-1.07663 6.634408.16589.240706.36545.189335.47321.08157.0965-.09654.34844-.355513.68532-.696635-1.37573-.88481-.82394-1.913544-.82394-1.913544.28463-.654314.14319-1.045705.14319-1.045705-.117-.620882.27488-.219026.27488-.219026.37915.43656.20355 1.041214.20355 1.041214-.25842.983338.50964 1.392683.84514 1.52016.29934-.225518.58347-.299594.80099-.285127-.79974-1.004784-1.39967-2.302191.15741-3.859268.44352-.443519.96488-.648071 1.50868-.672021.0608-.144702.33476-.697461 1.11527-1.035501 0 0 .45025.231733.70071 1.533877.41434.233734.80697.536567 1.15421.880313.34383.346652.64606.739393.88031 1.15421 1.30164.249948 1.53288.699711 1.53288.699711-.33751.781035-.89029 1.054932-1.03473 1.116041-.0234.544302-.22925 1.064414-.67276 1.507933-1.56108 1.561073-2.85473.954403-3.86027.149921.0202.271154-.0978.649074-.4767 1.027992-.54331.543305-.98654.976641-1.11975 1.109846-.10876.10876-.16189.308574.0838.474957 2.15203 1.074887 4.83712.716179 6.63192-1.078628 2.24432-2.244315 2.24407-5.883065-.00024-8.127379" fill-rule="evenodd"/><g stroke-width=".264583" transform="matrix(.70710678 .70710678 -.70710678 .70710678 0 0)"><path d="m107.46418-86.349648 2.497-7.524088h-1.65364l-1.67018 5.842882h-.0606l-1.69223-5.842882h-1.7253l2.51354 7.524088z"/><path d="m110.90376-86.349648h1.4497v-5.848394h-1.4497zm-.0992-7.29809c0 .451997.37483.760677.82131.760677.452 0 .82131-.30868.82131-.760677 0-.451996-.36931-.766189-.82131-.766189-.44648 0-.82131.314193-.82131.766189z"/><path d="m116.26157-86.244917c1.56546 0 2.32613-.931553 2.46394-1.868619h-1.34497c-.12127.474045-.52917.760677-1.10794.760677-.73863 0-1.24024-.56224-1.24024-1.449697v-.159852h3.74827v-.573264c0-1.681206-.98668-2.767101-2.57969-2.767101-1.53789 0-2.59071 1.014237-2.59071 2.728516v.534679c0 1.79145 1.04731 2.794661 2.65134 2.794661zm-1.22921-3.63802v-.01103c0-.749653.46854-1.328429 1.1796-1.328429.70556 0 1.16307.573264 1.16307 1.328429v.01103z"/><path d="m127.75992-92.198042h-1.44969l-.87092 4.316016h-.0606l-1.10794-4.316016h-1.36701l-1.10794 4.316016h-.0551l-.87092-4.316016h-1.46623l1.49379 5.848394h1.5379l1.12447-4.161675h.0441l1.12448 4.161675h1.53238z"/><path d="m133.31066-92.302773c-1.7253 0-2.6789 1.185113-2.6789 2.800174v.429948c0 1.697743.9536 2.827734 2.6789 2.827734 1.72531 0 2.6734-1.129991 2.6734-2.833246v-.429948c0-1.615061-.95361-2.794662-2.6734-2.794662zm0 1.12448c.83785 0 1.20716.716579 1.20716 1.670182v.451996c0 .926042-.3638 1.681207-1.20716 1.681207-.84887 0-1.21267-.760677-1.21267-1.681207v-.451996c0-.94809.37483-1.670182 1.21267-1.670182z"/><path d="m137.19673-86.349648h1.44418v-3.428559c0-.738628.4079-1.278819 1.15755-1.278819.62288 0 1.14102.35829 1.14102 1.256771v3.450607h1.4497v-3.7648c0-1.43316-.83234-2.1773-2.02296-2.1773-.97566 0-1.51033.545703-1.69775.94809h-.0606v-.854384h-1.41111z"/><path d="m151.95276-91.464925c-.0606-1.400087-1.12999-2.552127-2.98758-2.552127-2.0395 0-3.19705 1.333941-3.19705 3.356901v1.003212c0 2.050521 1.01975 3.450607 3.20807 3.450607 1.92925 0 2.98759-1.245746 2.98759-2.695442v-1.499306h-2.96554v1.107943h1.54891v.479557c0 .766189-.5898 1.361502-1.5434 1.361502-1.21267 0-1.73633-.881945-1.73633-2.210373v-.986676c0-1.344965.61185-2.116666 1.69223-2.116666.89297 0 1.4497.523654 1.54341 1.300868z"/><path d="m153.23709-86.349648h1.4497v-5.848394h-1.4497zm-.0992-7.29809c0 .451997.37482.760677.82131.760677.45199 0 .82131-.30868.82131-.760677 0-.451996-.36932-.766189-.82131-.766189-.44649 0-.82131.314193-.82131.766189z"/><path d="m156.594-92.198042h-.85439v1.12448h.82682v3.070269c0 1.196137.47956 1.686718 1.93477 1.686718.29214 0 .55122-.02756.66146-.04961v-1.07487c-.0661.0055-.18741.01102-.30868.01102-.60083 0-.84887-.176389-.84887-.760678v-2.882855h1.1355v-1.12448h-1.1355v-1.400086h-1.41111z"/><path d="m166.56548-86.349648v-7.524088h-1.49379v3.059245h-3.15847v-3.059245h-1.48828v7.524088h1.48828v-3.224609h3.15847v3.224609z"/><path d="m173.19108-92.198042h-1.4552v3.461632c0 .821311-.4961 1.245747-1.14653 1.245747-.57327 0-1.11897-.264583-1.11897-1.22921v-3.478169h-1.4497v3.864019c0 1.378039.80478 2.07257 2.00092 2.07257.96462 0 1.50481-.48507 1.68671-.942578h.0661v.854383h1.41662z"/><path d="m177.84334-86.272477c1.35599 0 2.23242-1.003212 2.23242-2.750565v-.51263c0-1.785937-.89848-2.73954-2.22691-2.73954-.7717 0-1.42213.380339-1.6812.926042h-.0606v-2.921441h-1.4552v7.920963h1.43316v-.903993h.0551c.29214.600825.87643.981164 1.70325.981164zm-.45751-1.157552c-.78823 0-1.28984-.567752-1.28984-1.648134v-.396875c0-1.080382.50712-1.63711 1.28984-1.63711.71107 0 1.20165.56224 1.20165 1.63711v.402387c0 1.069358-.49058 1.642622-1.20165 1.642622z"/></g></g></g></svg>