<?xml version="1.0" encoding="UTF-8" standalone="no"?>
<!-- Created with Inkscape (http://www.inkscape.org/) -->

<svg
   xmlns:dc="http://purl.org/dc/elements/1.1/"
   xmlns:cc="http://creativecommons.org/ns#"
   xmlns:rdf="http://www.w3.org/1999/02/22-rdf-syntax-ns#"
   xmlns:svg="http://www.w3.org/2000/svg"
   xmlns="http://www.w3.org/2000/svg"
   xmlns:sodipodi="http://sodipodi.sourceforge.net/DTD/sodipodi-0.dtd"
   xmlns:inkscape="http://www.inkscape.org/namespaces/inkscape"
   width="101.02794mm"
   height="101.02794mm"
   viewBox="0 0 101.02794 101.02794"
   version="1.1"
   id="svg8"
   inkscape:version="0.92.2 5c3e80d, 2017-08-06"
   sodipodi:docname="github-corner-ribbon.svg">
  <defs
     id="defs2" />
  <sodipodi:namedview
     id="base"
     pagecolor="#ffffff"
     bordercolor="#666666"
     borderopacity="1.0"
     inkscape:pageopacity="0.0"
     inkscape:pageshadow="2"
     inkscape:zoom="0.73164957"
     inkscape:cx="786.26392"
     inkscape:cy="-455.64678"
     inkscape:document-units="mm"
     inkscape:current-layer="text5260"
     showgrid="false"
     fit-margin-top="0"
     fit-margin-left="0"
     fit-margin-right="0"
     fit-margin-bottom="0"
     inkscape:window-width="2560"
     inkscape:window-height="1395"
     inkscape:window-x="0"
     inkscape:window-y="1"
     inkscape:window-maximized="1" />
  <metadata
     id="metadata5">
    <rdf:RDF>
      <cc:Work
         rdf:about="">
        <dc:format>image/svg+xml</dc:format>
        <dc:type
           rdf:resource="http://purl.org/dc/dcmitype/StillImage" />
        <dc:title />
      </cc:Work>
    </rdf:RDF>
  </metadata>
  <g
     inkscape:label="Layer 1"
     inkscape:groupmode="layer"
     id="layer1"
     transform="translate(-109.52975,-1.7756022)">
    <path
       style="opacity:1;fill:#800080;fill-opacity:1;stroke:none;stroke-width:0.99999994"
       d="M 571.55469,6.7109375 H 413.9707 L 795.80859,388.54883 V 230.9668 Z"
       id="path5265"
       transform="scale(0.26458333)"
       inkscape:connector-curvature="0" />
    <path
       d="m 203.28701,68.643953 c -2.24356,-2.243565 -5.88231,-2.243812 -8.12663,5.03e-4 -1.7953,1.795301 -2.15401,4.482392 -1.07663,6.634408 0.16589,0.240706 0.36545,0.189335 0.47321,0.08157 0.0965,-0.09654 0.34844,-0.355513 0.68532,-0.696635 -1.37573,-0.88481 -0.82394,-1.913544 -0.82394,-1.913544 0.28463,-0.654314 0.14319,-1.045705 0.14319,-1.045705 -0.117,-0.620882 0.27488,-0.219026 0.27488,-0.219026 0.37915,0.43656 0.20355,1.041214 0.20355,1.041214 -0.25842,0.983338 0.50964,1.392683 0.84514,1.52016 0.29934,-0.225518 0.58347,-0.299594 0.80099,-0.285127 -0.79974,-1.004784 -1.39967,-2.302191 0.15741,-3.859268 0.44352,-0.443519 0.96488,-0.648071 1.50868,-0.672021 0.0608,-0.144702 0.33476,-0.697461 1.11527,-1.035501 0,0 0.45025,0.231733 0.70071,1.533877 0.41434,0.233734 0.80697,0.536567 1.15421,0.880313 0.34383,0.346652 0.64606,0.739393 0.88031,1.15421 1.30164,0.249948 1.53288,0.699711 1.53288,0.699711 -0.33751,0.781035 -0.89029,1.054932 -1.03473,1.116041 -0.0234,0.544302 -0.22925,1.064414 -0.67276,1.507933 -1.56108,1.561073 -2.85473,0.954403 -3.86027,0.149921 0.0202,0.271154 -0.0978,0.649074 -0.4767,1.027992 -0.54331,0.543305 -0.98654,0.976641 -1.11975,1.109846 -0.10876,0.10876 -0.16189,0.308574 0.0838,0.474957 2.15203,1.074887 4.83712,0.716179 6.63192,-1.078628 2.24432,-2.244315 2.24407,-5.883065 -2.4e-4,-8.127379"
       style="fill:#ffffff;fill-opacity:1;fill-rule:evenodd;stroke:none;stroke-width:0.03527778"
       id="path106"
       inkscape:connector-curvature="0" />
    <g
       aria-label="View on GitHub"
       transform="rotate(45)"
       style="font-style:normal;font-variant:normal;font-weight:600;font-stretch:normal;font-size:11.28888893px;line-height:125%;font-family:'.SF Compact Display';-inkscape-font-specification:'.SF Compact Display Semi-Bold';letter-spacing:0px;word-spacing:0px;fill:#ffffff;fill-opacity:1;stroke:none;stroke-width:0.26458332px;stroke-linecap:butt;stroke-linejoin:miter;stroke-opacity:1"
       id="text5260">
      <path
         d="m 107.46418,-86.349648 2.497,-7.524088 h -1.65364 l -1.67018,5.842882 h -0.0606 l -1.69223,-5.842882 h -1.7253 l 2.51354,7.524088 z"
         style="font-style:normal;font-variant:normal;font-weight:600;font-stretch:normal;font-size:11.28888893px;font-family:'.SF Compact Display';-inkscape-font-specification:'.SF Compact Display Semi-Bold';fill:#ffffff;stroke-width:0.26458332px"
         id="path4751" />
      <path
         d="m 110.90376,-86.349648 h 1.4497 v -5.848394 h -1.4497 z m -0.0992,-7.29809 c 0,0.451997 0.37483,0.760677 0.82131,0.760677 0.452,0 0.82131,-0.30868 0.82131,-0.760677 0,-0.451996 -0.36931,-0.766189 -0.82131,-0.766189 -0.44648,0 -0.82131,0.314193 -0.82131,0.766189 z"
         style="font-style:normal;font-variant:normal;font-weight:600;font-stretch:normal;font-size:11.28888893px;font-family:'.SF Compact Display';-inkscape-font-specification:'.SF Compact Display Semi-Bold';fill:#ffffff;stroke-width:0.26458332px"
         id="path4753" />
      <path
         d="m 116.26157,-86.244917 c 1.56546,0 2.32613,-0.931553 2.46394,-1.868619 h -1.34497 c -0.12127,0.474045 -0.52917,0.760677 -1.10794,0.760677 -0.73863,0 -1.24024,-0.56224 -1.24024,-1.449697 v -0.159852 h 3.74827 v -0.573264 c 0,-1.681206 -0.98668,-2.767101 -2.57969,-2.767101 -1.53789,0 -2.59071,1.014237 -2.59071,2.728516 v 0.534679 c 0,1.79145 1.04731,2.794661 2.65134,2.794661 z m -1.22921,-3.63802 v -0.01103 c 0,-0.749653 0.46854,-1.328429 1.1796,-1.328429 0.70556,0 1.16307,0.573264 1.16307,1.328429 v 0.01103 z"
         style="font-style:normal;font-variant:normal;font-weight:600;font-stretch:normal;font-size:11.28888893px;font-family:'.SF Compact Display';-inkscape-font-specification:'.SF Compact Display Semi-Bold';fill:#ffffff;stroke-width:0.26458332px"
         id="path4755" />
      <path
         d="m 127.75992,-92.198042 h -1.44969 l -0.87092,4.316016 h -0.0606 l -1.10794,-4.316016 h -1.36701 l -1.10794,4.316016 h -0.0551 l -0.87092,-4.316016 h -1.46623 l 1.49379,5.848394 h 1.5379 l 1.12447,-4.161675 h 0.0441 l 1.12448,4.161675 h 1.53238 z"
         style="font-style:normal;font-variant:normal;font-weight:600;font-stretch:normal;font-size:11.28888893px;font-family:'.SF Compact Display';-inkscape-font-specification:'.SF Compact Display Semi-Bold';fill:#ffffff;stroke-width:0.26458332px"
         id="path4757" />
      <path
         d="m 133.31066,-92.302773 c -1.7253,0 -2.6789,1.185113 -2.6789,2.800174 v 0.429948 c 0,1.697743 0.9536,2.827734 2.6789,2.827734 1.72531,0 2.6734,-1.129991 2.6734,-2.833246 v -0.429948 c 0,-1.615061 -0.95361,-2.794662 -2.6734,-2.794662 z m 0,1.12448 c 0.83785,0 1.20716,0.716579 1.20716,1.670182 v 0.451996 c 0,0.926042 -0.3638,1.681207 -1.20716,1.681207 -0.84887,0 -1.21267,-0.760677 -1.21267,-1.681207 v -0.451996 c 0,-0.94809 0.37483,-1.670182 1.21267,-1.670182 z"
         style="font-style:normal;font-variant:normal;font-weight:600;font-stretch:normal;font-size:11.28888893px;font-family:'.SF Compact Display';-inkscape-font-specification:'.SF Compact Display Semi-Bold';fill:#ffffff;stroke-width:0.26458332px"
         id="path4759" />
      <path
         d="m 137.19673,-86.349648 h 1.44418 v -3.428559 c 0,-0.738628 0.4079,-1.278819 1.15755,-1.278819 0.62288,0 1.14102,0.35829 1.14102,1.256771 v 3.450607 h 1.4497 v -3.7648 c 0,-1.43316 -0.83234,-2.1773 -2.02296,-2.1773 -0.97566,0 -1.51033,0.545703 -1.69775,0.94809 h -0.0606 v -0.854384 h -1.41111 z"
         style="font-style:normal;font-variant:normal;font-weight:600;font-stretch:normal;font-size:11.28888893px;font-family:'.SF Compact Display';-inkscape-font-specification:'.SF Compact Display Semi-Bold';fill:#ffffff;stroke-width:0.26458332px"
         id="path4761" />
      <path
         d="m 151.95276,-91.464925 c -0.0606,-1.400087 -1.12999,-2.552127 -2.98758,-2.552127 -2.0395,0 -3.19705,1.333941 -3.19705,3.356901 v 1.003212 c 0,2.050521 1.01975,3.450607 3.20807,3.450607 1.92925,0 2.98759,-1.245746 2.98759,-2.695442 v -1.499306 h -2.96554 v 1.107943 h 1.54891 v 0.479557 c 0,0.766189 -0.5898,1.361502 -1.5434,1.361502 -1.21267,0 -1.73633,-0.881945 -1.73633,-2.210373 v -0.986676 c 0,-1.344965 0.61185,-2.116666 1.69223,-2.116666 0.89297,0 1.4497,0.523654 1.54341,1.300868 z"
         style="font-style:normal;font-variant:normal;font-weight:600;font-stretch:normal;font-size:11.28888893px;font-family:'.SF Compact Display';-inkscape-font-specification:'.SF Compact Display Semi-Bold';fill:#ffffff;stroke-width:0.26458332px"
         id="path4763" />
      <path
         d="m 153.23709,-86.349648 h 1.4497 v -5.848394 h -1.4497 z m -0.0992,-7.29809 c 0,0.451997 0.37482,0.760677 0.82131,0.760677 0.45199,0 0.82131,-0.30868 0.82131,-0.760677 0,-0.451996 -0.36932,-0.766189 -0.82131,-0.766189 -0.44649,0 -0.82131,0.314193 -0.82131,0.766189 z"
         style="font-style:normal;font-variant:normal;font-weight:600;font-stretch:normal;font-size:11.28888893px;font-family:'.SF Compact Display';-inkscape-font-specification:'.SF Compact Display Semi-Bold';fill:#ffffff;stroke-width:0.26458332px"
         id="path4765" />
      <path
         d="m 156.594,-92.198042 h -0.85439 v 1.12448 h 0.82682 v 3.070269 c 0,1.196137 0.47956,1.686718 1.93477,1.686718 0.29214,0 0.55122,-0.02756 0.66146,-0.04961 v -1.07487 c -0.0661,0.0055 -0.18741,0.01102 -0.30868,0.01102 -0.60083,0 -0.84887,-0.176389 -0.84887,-0.760678 v -2.882855 h 1.1355 v -1.12448 h -1.1355 v -1.400086 H 156.594 Z"
         style="font-style:normal;font-variant:normal;font-weight:600;font-stretch:normal;font-size:11.28888893px;font-family:'.SF Compact Display';-inkscape-font-specification:'.SF Compact Display Semi-Bold';fill:#ffffff;stroke-width:0.26458332px"
         id="path4767" />
      <path
         d="m 166.56548,-86.349648 v -7.524088 h -1.49379 v 3.059245 h -3.15847 v -3.059245 h -1.48828 v 7.524088 h 1.48828 v -3.224609 h 3.15847 v 3.224609 z"
         style="font-style:normal;font-variant:normal;font-weight:600;font-stretch:normal;font-size:11.28888893px;font-family:'.SF Compact Display';-inkscape-font-specification:'.SF Compact Display Semi-Bold';fill:#ffffff;stroke-width:0.26458332px"
         id="path4769" />
      <path
         d="m 173.19108,-92.198042 h -1.4552 v 3.461632 c 0,0.821311 -0.4961,1.245747 -1.14653,1.245747 -0.57327,0 -1.11897,-0.264583 -1.11897,-1.22921 v -3.478169 h -1.4497 v 3.864019 c 0,1.378039 0.80478,2.07257 2.00092,2.07257 0.96462,0 1.50481,-0.48507 1.68671,-0.942578 h 0.0661 v 0.854383 h 1.41662 z"
         style="font-style:normal;font-variant:normal;font-weight:600;font-stretch:normal;font-size:11.28888893px;font-family:'.SF Compact Display';-inkscape-font-specification:'.SF Compact Display Semi-Bold';fill:#ffffff;stroke-width:0.26458332px"
         id="path4771" />
      <path
         d="m 177.84334,-86.272477 c 1.35599,0 2.23242,-1.003212 2.23242,-2.750565 v -0.51263 c 0,-1.785937 -0.89848,-2.73954 -2.22691,-2.73954 -0.7717,0 -1.42213,0.380339 -1.6812,0.926042 h -0.0606 v -2.921441 h -1.4552 v 7.920963 h 1.43316 v -0.903993 h 0.0551 c 0.29214,0.600825 0.87643,0.981164 1.70325,0.981164 z m -0.45751,-1.157552 c -0.78823,0 -1.28984,-0.567752 -1.28984,-1.648134 v -0.396875 c 0,-1.080382 0.50712,-1.63711 1.28984,-1.63711 0.71107,0 1.20165,0.56224 1.20165,1.63711 v 0.402387 c 0,1.069358 -0.49058,1.642622 -1.20165,1.642622 z"
         style="font-style:normal;font-variant:normal;font-weight:600;font-stretch:normal;font-size:11.28888893px;font-family:'.SF Compact Display';-inkscape-font-specification:'.SF Compact Display Semi-Bold';fill:#ffffff;stroke-width:0.26458332px"
         id="path4773" />
    </g>
  </g>
</svg>
