<svg height="24" viewBox="0 0 24 24" width="24" xmlns="http://www.w3.org/2000/svg"><path d="m0 0h24v24h-24z" fill="none"/><path d="m4 16c0 .88.39 1.67 1 2.22v1.78c0 .55.45 1 1 1h1c.55 0 1-.45 1-1v-1h8v1c0 .55.45 1 1 1h1c.55 0 1-.45 1-1v-1.78c.61-.55 1-1.34 1-2.22v-10c0-3.5-3.58-4-8-4s-8 .5-8 4zm3.5 1c-.83 0-1.5-.67-1.5-1.5s.67-1.5 1.5-1.5 1.5.67 1.5 1.5-.67 1.5-1.5 1.5zm9 0c-.83 0-1.5-.67-1.5-1.5s.67-1.5 1.5-1.5 1.5.67 1.5 1.5-.67 1.5-1.5 1.5zm1.5-6h-12v-5h12z" fill="#f00" stroke="#fff" stroke-width=".5"/><path d="m6 6h12v5h-12z" fill="#f2f2f2"/><g fill="#fff"><path d="m10.742914 13.224134q.08464.02865.164063.122396.08073.09375.161458.257812l.266927.53125h-.282552l-.248698-.498697q-.09635-.195313-.1875-.259115-.08984-.0638-.246094-.0638h-.286458v.821614h-.2630208v-1.94401h.5937498q.333334 0 .497396.139323.164063.139323.164063.420573 0 .183594-.08594.304687-.08463.121094-.247396.167969zm-.658854-.816406v.690104h.330729q.190104 0 .286459-.08724.09766-.08854.09766-.259114 0-.170573-.09766-.256511-.09635-.08724-.286459-.08724z"/><path d="m11.215571 12.191582h1.644531v.221354h-.690104v1.722656h-.264323v-1.722656h-.690104z"/><path d="m13.559321 12.450697-.356771.967448h.714843zm-.148438-.259115h.298177l.740886 1.94401h-.273438l-.177083-.498697h-.876302l-.177084.498697h-.277343z"/></g></svg>