<svg height="24" viewBox="0 0 24 24" width="24" xmlns="http://www.w3.org/2000/svg"><path d="m0 0h24v24h-24z" fill="none"/><path d="m4 16c0 .88.39 1.67 1 2.22v1.78c0 .55.45 1 1 1h1c.55 0 1-.45 1-1v-1h8v1c0 .55.45 1 1 1h1c.55 0 1-.45 1-1v-1.78c.61-.55 1-1.34 1-2.22v-10c0-3.5-3.58-4-8-4s-8 .5-8 4zm3.5 1c-.83 0-1.5-.67-1.5-1.5s.67-1.5 1.5-1.5 1.5.67 1.5 1.5-.67 1.5-1.5 1.5zm9 0c-.83 0-1.5-.67-1.5-1.5s.67-1.5 1.5-1.5 1.5.67 1.5 1.5-.67 1.5-1.5 1.5zm1.5-6h-12v-5h12z" fill="#800080" stroke="#fff" stroke-width=".5"/><path d="m6 6h12v5h-12z" fill="#f2f2f2"/><g fill="#fff"><circle cx="7.503159" cy="-15.508295" r="1.5" transform="scale(1 -1)"/><circle cx="16.493052" cy="-15.508295" r="1.5" transform="scale(1 -1)"/><path d="m9.69259897973 11.91501858617h1.31222752133v1.40169747422h-1.31222752133z"/><path d="m11.5364853395 11.91501858617h1.31222752133v1.40169747422h-1.31222752133z"/><path d="m13.38037184682 11.91501858617h1.31222752133v1.40169747422h-1.31222752133z"/><ellipse cx="11.22850149921" cy="14.49645474748" rx=".82014215868" ry=".77540712954"/><circle cx="13.20308445675" cy="14.49645474748" r=".8114722"/></g></svg>