<?xml version="1.0" encoding="UTF-8" standalone="no"?>
<svg
   xmlns:dc="http://purl.org/dc/elements/1.1/"
   xmlns:cc="http://creativecommons.org/ns#"
   xmlns:rdf="http://www.w3.org/1999/02/22-rdf-syntax-ns#"
   xmlns:svg="http://www.w3.org/2000/svg"
   xmlns="http://www.w3.org/2000/svg"
   xmlns:sodipodi="http://sodipodi.sourceforge.net/DTD/sodipodi-0.dtd"
   xmlns:inkscape="http://www.inkscape.org/namespaces/inkscape"
   width="24"
   height="24"
   viewBox="0 0 24 24"
   version="1.1"
   id="svg6"
   sodipodi:docname="wego-bus-shadow.svg"
   inkscape:version="0.92.2 5c3e80d, 2017-08-06">
  <metadata
     id="metadata12">
    <rdf:RDF>
      <cc:Work
         rdf:about="">
        <dc:format>image/svg+xml</dc:format>
        <dc:type
           rdf:resource="http://purl.org/dc/dcmitype/StillImage" />
        <dc:title />
      </cc:Work>
    </rdf:RDF>
  </metadata>
  <defs
     id="defs10" />
  <sodipodi:namedview
     pagecolor="#ffffff"
     bordercolor="#666666"
     borderopacity="1"
     objecttolerance="10"
     gridtolerance="10"
     guidetolerance="10"
     inkscape:pageopacity="0"
     inkscape:pageshadow="2"
     inkscape:window-width="1892"
     inkscape:window-height="938"
     id="namedview8"
     showgrid="false"
     inkscape:zoom="31.708333"
     inkscape:cx="7.8370565"
     inkscape:cy="12"
     inkscape:window-x="119"
     inkscape:window-y="117"
     inkscape:window-maximized="0"
     inkscape:current-layer="svg6" />
  <path
     d="M0 0h24v24H0z"
     fill="none"
     id="path2" />
  <path
     d="m 6.1091858,17.360261 c -0.1724047,0.757156 0.062822,1.436876 0.5650698,1.910099 l -0.3487284,1.531521 c -0.107753,0.473223 0.2540856,0.860405 0.8040856,0.860405 h 1 c 0.55,0 1.0881618,-0.387182 1.1959148,-0.860405 l 0.195914,-0.860405 h 8.0000014 l -0.195916,0.860405 c -0.107748,0.473223 0.254089,0.860405 0.804087,0.860405 h 1 c 0.55,0 1.088161,-0.387182 1.195913,-0.860405 l 0.348729,-1.531521 c 0.717753,-0.473223 1.262526,-1.152943 1.434929,-1.910099 l 1.959147,-8.6040495 c 0.685702,-3.011417 -2.796342,-3.44162 -7.216342,-3.44162 -4.419999,0 -8.0979566,0.430203 -8.7836579,3.44162 z"
     id="path4"
     style="opacity:0.2;fill:#000000;stroke:#ffffff;stroke-width:0.46379009;stroke-miterlimit:4;stroke-dasharray:none;stroke-opacity:1"
     inkscape:connector-curvature="0"
     sodipodi:nodetypes="scssssccsssscsssss" />
</svg>
