<?xml version="1.0" encoding="UTF-8" standalone="no"?>
<svg
   xmlns:dc="http://purl.org/dc/elements/1.1/"
   xmlns:cc="http://creativecommons.org/ns#"
   xmlns:rdf="http://www.w3.org/1999/02/22-rdf-syntax-ns#"
   xmlns:svg="http://www.w3.org/2000/svg"
   xmlns="http://www.w3.org/2000/svg"
   xmlns:sodipodi="http://sodipodi.sourceforge.net/DTD/sodipodi-0.dtd"
   xmlns:inkscape="http://www.inkscape.org/namespaces/inkscape"
   width="24"
   height="24"
   viewBox="0 0 24 24"
   version="1.1"
   id="svg6"
   sodipodi:docname="baseline-directions_bus-24px.svg"
   inkscape:version="0.92.2 5c3e80d, 2017-08-06">
  <metadata
     id="metadata12">
    <rdf:RDF>
      <cc:Work
         rdf:about="">
        <dc:format>image/svg+xml</dc:format>
        <dc:type
           rdf:resource="http://purl.org/dc/dcmitype/StillImage" />
        <dc:title></dc:title>
      </cc:Work>
    </rdf:RDF>
  </metadata>
  <defs
     id="defs10" />
  <sodipodi:namedview
     pagecolor="#ffffff"
     bordercolor="#666666"
     borderopacity="1"
     objecttolerance="10"
     gridtolerance="10"
     guidetolerance="10"
     inkscape:pageopacity="0"
     inkscape:pageshadow="2"
     inkscape:window-width="1892"
     inkscape:window-height="938"
     id="namedview8"
     showgrid="false"
     inkscape:zoom="15.991583"
     inkscape:cx="13.423729"
     inkscape:cy="14.973155"
     inkscape:window-x="0"
     inkscape:window-y="0"
     inkscape:window-maximized="0"
     inkscape:current-layer="svg6" />
  <path
     d="M0 0h24v24H0z"
     fill="none"
     id="path2" />
  <path
     d="M4 16c0 .88.39 1.67 1 2.22V20c0 .55.45 1 1 1h1c.55 0 1-.45 1-1v-1h8v1c0 .55.45 1 1 1h1c.55 0 1-.45 1-1v-1.78c.61-.55 1-1.34 1-2.22V6c0-3.5-3.58-4-8-4s-8 .5-8 4v10zm3.5 1c-.83 0-1.5-.67-1.5-1.5S6.67 14 7.5 14s1.5.67 1.5 1.5S8.33 17 7.5 17zm9 0c-.83 0-1.5-.67-1.5-1.5s.67-1.5 1.5-1.5 1.5.67 1.5 1.5-.67 1.5-1.5 1.5zm1.5-6H6V6h12v5z"
     id="path4"
     style="fill:#800080;stroke:#ffffff;stroke-opacity:1;stroke-width:0.5;stroke-miterlimit:4;stroke-dasharray:none" />
  <rect
     style="fill:#f2f2f2;fill-opacity:1;stroke:none;opacity:1"
     id="rect4773"
     width="12"
     height="5"
     x="6"
     y="6" />
  <circle
     style="opacity:1;fill:#ffffff;fill-opacity:1;stroke:none;stroke-width:1.20750928"
     id="path4777"
     cx="7.5031586"
     cy="-15.508295"
     r="1.5"
     transform="scale(1,-1)" />
  <circle
     style="opacity:1;fill:#ffffff;fill-opacity:1;stroke:none;stroke-width:1.20750928"
     id="path4777-7"
     cx="16.493052"
     cy="-15.508295"
     r="1.5"
     transform="scale(1,-1)" />
  <g
     id="g4904"
     transform="matrix(0.0210772,0,0,0.0210772,14.523982,12.878468)">
    <rect
       y="-45.710503"
       x="-229.22319"
       height="66.503021"
       width="62.258152"
       id="rect4859"
       style="opacity:1;fill:#ffffff;fill-opacity:1;stroke:none" />
    <rect
       y="-45.710503"
       x="-141.74068"
       height="66.503021"
       width="62.258152"
       id="rect4859-9"
       style="opacity:1;fill:#ffffff;fill-opacity:1;stroke:none" />
    <rect
       y="-45.710503"
       x="-54.258163"
       height="66.503021"
       width="62.258152"
       id="rect4859-3"
       style="opacity:1;fill:#ffffff;fill-opacity:1;stroke:none" />
    <ellipse
       ry="36.788906"
       rx="38.911343"
       cy="76.764786"
       cx="-156.35286"
       id="path4882"
       style="opacity:1;fill:#ffffff;fill-opacity:1;stroke:none" />
    <circle
       r="38.5"
       cy="76.764786"
       cx="-62.669498"
       id="path4882-8"
       style="opacity:1;fill:#ffffff;fill-opacity:1;stroke:none;stroke-width:1.01756978" />
  </g>
</svg>
